<svg xmlns="http://www.w3.org/2000/svg" viewBox="0 0 160 160" fill="none" aria-hidden="true">
  <!-- Cupcake / droplet mark (brand: heaven-rose, heaven-gold, heaven-cocoa) -->
  <path
    d="M80 28c-10 15-30 20-30 40 0 15 12.5 27.5 30 27.5s30-12.5 30-27.5c0-20-20-25-30-40z"
    fill="#ca6490"
  />
  <path
    d="M80 52c-6 9-18 12-18 24 0 9 7.5 16.5 18 16.5s18-7.5 18-16.5c0-12-12-15-18-24z"
    fill="#E6A4BC"
    opacity="0.65"
  />
  <ellipse cx="80" cy="118" rx="36" ry="10" fill="#3D3229" opacity="0.12" />
  <path
    d="M52 108c8 6 20 10 28 10s20-4 28-10"
    stroke="#C9A227"
    stroke-width="3"
    stroke-linecap="round"
    opacity="0.85"
  />
</svg>
